<?xml version="1.0" encoding="utf-8"?>
<!-- Generator: Adobe Illustrator 16.0.0, SVG Export Plug-In . SVG Version: 6.00 Build 0)  -->
<!DOCTYPE svg PUBLIC "-//W3C//DTD SVG 1.1//EN" "http://www.w3.org/Graphics/SVG/1.1/DTD/svg11.dtd">
<svg version="1.1" id="Layer_1" xmlns="http://www.w3.org/2000/svg" xmlns:xlink="http://www.w3.org/1999/xlink" x="0px" y="0px"
	 width="1024px" height="120px" viewBox="0 0 1024 120" enable-background="new 0 0 1024 120" xml:space="preserve">
<path id="path6712" fill="#FEFFFF" d="M425.235,70.093c-15.632,4.805-36.719,6.688-60.108,6.688
	c-29.689,0-56.713-3.844-72.225-11.107c-15.39,7.416-42.536,11.107-72.59,11.107c-29.688,0-56.471-3.92-71.982-11.186
	c-15.392,7.494-42.535,11.186-72.953,11.186c-21.934,0-42.05-1.576-57.198-5.843L6.667,44.805
	c15.753,6.611,40.718,10.876,68.711,10.876c30.418,0,57.562-4.728,72.953-12.221c15.511,7.264,42.293,12.221,71.982,12.221
	c30.054,0,57.2-4.728,72.59-12.145c15.511,7.264,42.535,12.145,72.225,12.145c30.296,0,57.079-4.958,72.348-12.452L425.235,70.093z"
	/>
<path id="svg_1" fill="#FEFFFF" d="M715.57,70.817c-15.631,4.806-36.72,6.688-60.107,6.688c-29.688,0-56.714-3.844-72.225-11.107
	c-15.389,7.417-42.538,11.107-72.59,11.107c-29.688,0-56.47-3.92-71.982-11.185c-15.39,7.494-42.535,11.185-72.952,11.185
	c-21.935,0-42.051-1.576-57.2-5.842l-11.512-26.135c15.754,6.611,40.718,10.877,68.711,10.877c30.417,0,57.562-4.727,72.952-12.222
	c15.513,7.264,42.294,12.222,71.982,12.222c30.052,0,57.202-4.727,72.59-12.145c15.511,7.264,42.536,12.145,72.225,12.145
	c30.295,0,57.079-4.958,72.347-12.453L715.57,70.817z"/>
<path id="svg_5" fill="#FEFFFF" d="M1005.907,70.093c-15.633,4.805-36.722,6.688-60.108,6.688c-29.69,0-56.714-3.844-72.225-11.107
	c-15.392,7.416-42.537,11.107-72.591,11.107c-29.688,0-56.471-3.92-71.981-11.186c-15.392,7.494-42.535,11.186-72.953,11.186
	c-21.934,0-42.049-1.576-57.199-5.843l-11.511-26.134c15.754,6.611,40.718,10.876,68.71,10.876c30.418,0,57.562-4.728,72.953-12.221
	c15.511,7.264,42.293,12.221,71.981,12.221c30.054,0,57.199-4.728,72.591-12.145c15.511,7.264,42.534,12.145,72.225,12.145
	c30.298,0,57.079-4.958,72.348-12.452L1005.907,70.093z"/>
</svg>
